<svg width="1000" height="1000" viewBox="0 0 1000 1000" fill="none" xmlns="http://www.w3.org/2000/svg">
<path d="M386.9 462.6L385.9 462L324.1 426.3C325.3 425.5 325.2 424.2 323.8 423.4C323.006 422.972 322.125 422.731 321.223 422.696C320.322 422.661 319.424 422.834 318.6 423.2L318.2 423.4L317.7 423.7C316.7 424.6 316.9 425.8 318.2 426.6C318.967 426.996 319.807 427.227 320.668 427.279C321.529 427.33 322.392 427.201 323.2 426.9H323.3L397.3 469.7V468.7L386.9 462.6ZM370.5 361.1C370.679 361.022 370.821 360.879 370.9 360.7C371.027 360.587 371.128 360.448 371.197 360.293C371.266 360.138 371.301 359.97 371.3 359.8C371.3 359.2 370.9 358.7 370.1 358.2C369.22 357.804 368.265 357.6 367.3 357.6C366.335 357.6 365.38 357.804 364.5 358.2C364.2 358.357 363.944 358.585 363.752 358.864C363.56 359.143 363.439 359.464 363.4 359.8C363.408 360.123 363.512 360.437 363.7 360.7C363.92 360.982 364.192 361.219 364.5 361.4C365.266 361.804 366.112 362.031 366.977 362.066C367.842 362.101 368.704 361.941 369.5 361.6L397.3 377.6V376.6L370.5 361.1ZM389.1 397.2L374.8 388.9C375.8 388 375.7 386.8 374.3 386.1C373.435 385.651 372.475 385.417 371.5 385.417C370.525 385.417 369.565 385.651 368.7 386.1C367.2 386.9 367.2 388.3 368.7 389.3C369.516 389.663 370.397 389.858 371.29 389.875C372.183 389.893 373.07 389.731 373.9 389.4L388.2 397.7L393.7 400.8L397.3 402.9V401.9L389.1 397.2ZM369.9 402.2C370.175 402.056 370.399 401.831 370.54 401.555C370.681 401.279 370.734 400.966 370.69 400.659C370.646 400.352 370.508 400.066 370.295 399.84C370.082 399.615 369.804 399.461 369.5 399.4C368.653 398.952 367.709 398.717 366.75 398.717C365.791 398.717 364.847 398.952 364 399.4C362.4 400.2 362.4 401.7 364 402.6C364.748 403.004 365.578 403.232 366.427 403.266C367.276 403.301 368.122 403.141 368.9 402.8L397.3 419.1V418.1L369.9 402.2ZM386.9 445.7L385.9 445.1L323.5 409.1H298.7C298.451 408.606 298.07 408.191 297.6 407.9C296.72 407.504 295.765 407.3 294.8 407.3C293.835 407.3 292.88 407.504 292 407.9C290.5 408.9 290.5 410.3 292 411.2C292.88 411.596 293.835 411.801 294.8 411.801C295.765 411.801 296.72 411.596 297.6 411.2C298.09 410.934 298.477 410.511 298.7 410H323.2L385.9 446.2L386.9 446.8L397.3 452.8V451.8L386.9 445.7ZM869.6 606.1C868.735 605.651 867.775 605.417 866.8 605.417C865.825 605.417 864.865 605.651 864 606.1C862.7 606.8 862.5 608.1 863.6 609L790.7 651.1H772.4L665 589.1H542.4L475.7 550.6L474.8 550.1L472.7 548.9L485.9 541.2L488 542.5L536.4 570.4H678.5L741.3 606.8L742.8 607.6L778 627.9C776.9 628.8 777.1 630.1 778.4 630.9C779.265 631.349 780.225 631.583 781.2 631.583C782.175 631.583 783.135 631.349 784 630.9C785.5 630 785.5 628.5 784 627.7C783.234 627.305 782.393 627.074 781.532 627.022C780.671 626.97 779.808 627.099 779 627.4L744.6 607.6L743.1 606.8L678.8 569.7H573.7L595.1 557.3L596.6 556.5L601.2 553.8H675.5C675.709 554.289 676.057 554.706 676.5 555C677.386 555.439 678.361 555.667 679.35 555.667C680.339 555.667 681.314 555.439 682.2 555C683.7 554.1 683.7 552.6 682.2 551.8C681.314 551.361 680.339 551.133 679.35 551.133C678.361 551.133 677.386 551.361 676.5 551.8C676.259 551.919 676.045 552.088 675.873 552.294C675.701 552.501 675.574 552.742 675.5 553H601L594.9 556.5L593.4 557.3L572 569.6H536.7L489.8 542.5L488.9 542L486.7 540.7L498.4 534L500.5 535.3L501.4 535.8L542.6 559.6H560.5L564.7 557.2L566.1 556.4L596 539.1L596.5 538.8H705.4L725 527.5H723.2L705.2 537.9H596.3L577.8 548.6L564.4 556.4L563 557.2L560.2 558.8H542.9L510.8 540.3H526.9L542.4 549.3H554.7L555.8 548.6L557.3 547.8L581.6 533.7C583.263 534.291 585.089 534.219 586.7 533.5C588.3 532.5 588.3 531.1 586.7 530.2C585.82 529.804 584.865 529.6 583.9 529.6C582.935 529.6 581.98 529.804 581.1 530.2C579.7 531 579.6 532.3 580.7 533.2L575.5 536.2L572 538.2L555.6 547.8L554.4 548.4H542.7L527.2 539.4H509.3L502.2 535.3L501.3 534.8L499.2 533.5L509.6 527.5H508.1L419.9 578.4L319.6 520.6L318.7 520.1L316.7 518.9L321.2 516.3L322 515.8L364.9 491L365.8 490.5L381.9 481.3L382.8 480.7L397.3 472.3V471.3L384.5 478.7L277.9 417.2V365.7L328.2 336.6H374.5L397.3 323.5V322.4L374.3 335.8H329.6L390.8 300.5L391 300.3V254.4C391.799 254.357 392.582 254.153 393.3 253.8C394.9 252.9 394.9 251.5 393.3 250.6C392.453 250.152 391.509 249.917 390.55 249.917C389.591 249.917 388.647 250.152 387.8 250.6C386.3 251.5 386.3 252.9 387.8 253.8C388.554 254.154 389.369 254.357 390.2 254.4V299.8L288.5 358.5L226 322.4V281.8L181.5 256.2C182.7 255.3 182.5 254.1 181.2 253.3C180.349 252.809 179.383 252.55 178.4 252.55C177.417 252.55 176.451 252.809 175.6 253.3C174.1 254.2 174.1 255.6 175.6 256.4C176.35 256.843 177.194 257.101 178.064 257.154C178.933 257.206 179.803 257.05 180.6 256.7L225 282.3V322.9L287.6 359L277.2 365H276.9V405.6L258.9 395.2V369.9L241.7 360L240.7 359.4L222.3 348.8C223.4 347.9 223.3 346.7 221.9 345.8C221.02 345.404 220.065 345.2 219.1 345.2C218.135 345.2 217.18 345.404 216.3 345.8C214.7 346.7 214.7 348.2 216.3 349.1C217.099 349.46 217.963 349.654 218.84 349.671C219.716 349.689 220.587 349.528 221.4 349.2L240.7 360.4L241.7 361L258 370.4V395.8L276.9 406.7V417.7L383.5 479.2L381.8 480.2L380.9 480.7L367.9 488.3L161.2 368.9V325.7L45.7 259C46.9 258.2 46.7 256.9 45.4 256.1C44.502 255.705 43.5314 255.5 42.55 255.5C41.5687 255.5 40.5981 255.705 39.7 256.1C38.2 257 38.2 258.4 39.7 259.3C40.4852 259.7 41.3477 259.925 42.2281 259.959C43.1085 259.994 43.9859 259.837 44.8 259.5L160.3 326.2V369.5L367 488.8L364.9 490L364.1 490.5L354.3 496.2L327.4 480.7L325.8 479.8L247.7 434.8H170.1L135.9 415H136.2V394L97.4 371.5C98.6 370.7 98.5 369.4 97 368.6C96.1527 368.152 95.2087 367.917 94.25 367.917C93.2914 367.917 92.3474 368.152 91.5 368.6C90 369.5 90 370.9 91.5 371.8C92.2659 372.204 93.1123 372.431 93.9774 372.466C94.8425 372.501 95.7044 372.341 96.5 372L135.2 394.4V414.4L76.5 380.5H66.3L11.3 412.2C10.5044 411.859 9.64249 411.7 8.7774 411.734C7.91231 411.769 7.0659 411.996 6.30004 412.4C4.70004 413.3 4.70004 414.8 6.30004 415.6C7.14735 416.049 8.09142 416.283 9.05004 416.283C10.0086 416.283 10.9527 416.049 11.8 415.6C13.2 414.9 13.4 413.7 12.2 412.8L66.5 381.4H76.2L169.8 435.4H247.4L324.1 479.8L325.7 480.7L353.3 496.7L342.1 503.2L262.6 457.2L261 456.3L241.4 444.9H152.3L109.5 420.1C110 419.4 109.7 418.4 108.6 417.7C107.735 417.251 106.775 417.017 105.8 417.017C104.825 417.017 103.865 417.251 103 417.7C101.5 418.6 101.5 420.1 103 420.9C103.865 421.349 104.825 421.583 105.8 421.583C106.775 421.583 107.735 421.349 108.6 420.9L108.9 420.7L152 445.7H241L255.9 454.4H137.1L43 508.6C41.3716 508.009 39.5761 508.081 38 508.8C36.5 509.8 36.5 511.2 38 512C38.8651 512.449 39.8254 512.683 40.8 512.683C41.7746 512.683 42.7349 512.449 43.6 512C44.9 511.3 45.1 510 43.9 509.1L137.3 455.2H257.4L259.3 456.3L260.9 457.2L295.1 477L290.9 479.4L290.1 479.9L280.3 485.5H254.1L229.5 499.6C228.692 499.299 227.829 499.17 226.968 499.222C226.107 499.273 225.267 499.505 224.5 499.9C222.9 500.7 222.9 502.2 224.5 503.1C225.365 503.549 226.325 503.783 227.3 503.783C228.275 503.783 229.235 503.549 230.1 503.1C231.4 502.3 231.6 501.1 230.5 500.1L254.3 486.3H278.8L271.8 490.4L270.4 491.2L221.7 519.3H168.9L139.4 502.3C140.5 501.5 140.3 500.2 139 499.4C138.135 498.951 137.175 498.717 136.2 498.717C135.225 498.717 134.265 498.951 133.4 499.4C131.9 500.3 131.9 501.7 133.5 502.6C134.266 503.004 135.112 503.231 135.977 503.266C136.842 503.301 137.704 503.141 138.5 502.8L168.5 520.1H221.9L272.2 491.1L273.6 490.3L290.9 480.3L291.8 479.8L295.9 477.4L327.5 495.5H310.1L298.6 502.2L297.8 502.7L296.1 503.6C295.264 503.286 294.373 503.141 293.48 503.176C292.587 503.21 291.71 503.422 290.9 503.8C289.4 504.7 289.4 506.2 290.9 507C291.765 507.449 292.725 507.683 293.7 507.683C294.675 507.683 295.635 507.449 296.5 507C297.8 506.2 298 505 296.9 504.1L298.6 503.2L299.5 502.7L310.3 496.4H329.1L341.4 503.6L321.2 515.2L320.3 515.7L315.7 518.4L315 518.8L317.9 520.5L318.7 520.9L323.2 523.6L321.2 524.7L320.3 525.3L298.6 537.8L297.7 538.3L277.8 549.8H262.5L244.5 539.3C245.5 538.4 245.5 537.2 244 536.4C243.153 535.952 242.209 535.717 241.25 535.717C240.291 535.717 239.347 535.952 238.5 536.4C237 537.3 237 538.7 238.5 539.6C239.285 540 240.148 540.225 241.028 540.259C241.909 540.294 242.786 540.137 243.6 539.8L262.2 550.6H278L298.6 538.7L299.5 538.2L311 531.5V548.9L290.8 560.6L290 561L280 567C279.203 566.65 278.333 566.495 277.464 566.547C276.594 566.599 275.75 566.857 275 567.3C273.4 568.1 273.4 569.6 275 570.4C275.833 570.891 276.783 571.15 277.75 571.15C278.717 571.15 279.667 570.891 280.5 570.4C280.798 570.315 281.065 570.145 281.268 569.91C281.472 569.676 281.603 569.388 281.645 569.081C281.687 568.773 281.639 568.46 281.507 568.18C281.375 567.899 281.164 567.663 280.9 567.5L290.9 561.8L291.7 561.3L311.7 549.8H311.9V531.2L321.1 525.8L322 525.3L324 524.2L366.9 548.9L364.9 550.1L364.1 550.6L347.1 560.4H321.3L280.5 583.9H249.6L206.5 559.1C207.6 558.2 207.5 557 206.1 556.1C205.237 555.705 204.299 555.5 203.35 555.5C202.401 555.5 201.463 555.705 200.6 556.1C199 557.1 199 558.5 200.6 559.4C202.179 560.109 203.97 560.181 205.6 559.6L249.2 584.8H280.7L321.5 561.2H345.6L226 630.3H141.6L136.1 633.4L135.2 634L88.5 661H88.2V708.2C87.0858 708.083 85.9634 708.328 85 708.9C83.5 709.8 83.5 711.2 85 712C85.8513 712.492 86.817 712.75 87.8 712.75C88.783 712.75 89.7487 712.492 90.6 712C92.1 711.2 92.1 709.8 90.6 708.9C90.1399 708.612 89.6319 708.409 89.1 708.3V661.6L135.2 635L136.1 634.4L141.8 631.1H226.3L365 551.1L365.8 550.6L367.8 549.4L383.9 558.7L381.9 559.9L381.1 560.4L241.1 641.2H240.9V690.5L192 718.9C191.186 718.563 190.308 718.407 189.428 718.441C188.548 718.476 187.685 718.7 186.9 719.1C185.4 720 185.4 721.4 186.9 722.3C187.747 722.749 188.691 722.983 189.65 722.983C190.609 722.983 191.553 722.749 192.4 722.3C193.8 721.5 194 720.3 192.8 719.4L241.5 691.3L241.7 691.1V641.8L381.9 560.9L382.8 560.4L384.8 559.2L401.6 568.9L399.6 570.1L317.9 617.3H317.7V659.6L461.7 742.8C460.7 743.6 460.8 744.9 462.1 745.7C462.965 746.149 463.925 746.383 464.9 746.383C465.875 746.383 466.835 746.149 467.7 745.7C469.2 744.8 469.2 743.3 467.7 742.5C466.94 742.085 466.098 741.843 465.234 741.791C464.369 741.739 463.504 741.879 462.7 742.2L356.9 681.3H388.7L445.7 714.3C444.6 715.2 444.7 716.4 446.1 717.2C446.965 717.649 447.925 717.883 448.9 717.883C449.875 717.883 450.835 717.649 451.7 717.2C453.2 716.3 453.2 714.9 451.7 714C450.915 713.601 450.052 713.376 449.172 713.341C448.292 713.307 447.414 713.463 446.6 713.8L389 680.5H355.3L318.7 659.3V618H318.8L324.3 614.8L386.1 579V600L344.5 623.9L344.3 624.1V645.3C343.509 645.39 342.734 645.592 342 645.9C340.4 646.9 340.4 648.3 342 649.2C342.863 649.596 343.801 649.8 344.75 649.8C345.699 649.8 346.637 649.596 347.5 649.2C349.1 648.3 349.1 646.9 347.5 645.9C346.746 645.547 345.931 645.343 345.1 645.3V624.6L386.6 600.7L386.9 600.5V578.5L399.7 571.1L400.5 570.6L402.5 569.5L419.6 579.5H419.9L430.4 573.4V619.3L393.8 640.4C393.7 640.4 393.6 640.4 393.6 640.3C392.801 640.017 391.952 639.906 391.107 639.975C390.263 640.044 389.442 640.291 388.7 640.7C387.4 641.4 387.3 642.5 388.2 643.4L388.7 643.8L389 644C389.836 644.391 390.752 644.576 391.674 644.542C392.596 644.507 393.496 644.253 394.3 643.8C395.7 643 395.8 641.7 394.7 640.9L431.1 619.9H431.3V601.2L445.8 609.5L446.6 610L458.6 616.9V634.6L398.9 669C398.099 668.683 397.24 668.537 396.379 668.571C395.518 668.606 394.673 668.82 393.9 669.2C392.3 670.1 392.3 671.5 393.9 672.4C394.747 672.849 395.691 673.083 396.65 673.083C397.609 673.083 398.553 672.849 399.4 672.4C400.8 671.6 401 670.4 399.9 669.4L459.3 635.1H459.5V616.3L446.6 608.8L445.8 608.4L431.3 600V572.8L446.1 564.2L448.3 565.4L449.2 565.9L458.9 571.5V588.1L478 599.1C476.9 600.1 477 601.3 478.5 602.2C479.327 602.587 480.226 602.796 481.139 602.813C482.052 602.83 482.959 602.656 483.8 602.3H484.1L484.7 601.8C484.852 601.675 484.978 601.52 485.069 601.346C485.161 601.172 485.218 600.981 485.235 600.785C485.253 600.589 485.232 600.391 485.172 600.203C485.113 600.015 485.017 599.841 484.89 599.69C484.832 599.622 484.768 599.558 484.7 599.5L484.1 599H483.8C483.047 598.665 482.234 598.484 481.41 598.467C480.586 598.45 479.767 598.597 479 598.9L459.8 587.8V572L501.6 596.2V632.5L484.7 642.3L483.8 642.9L438.6 668.9H438.4V682.7L460.6 695.4L461.5 696L474 703.2C472.9 704.1 473 705.3 474.4 706.2C475.28 706.596 476.235 706.8 477.2 706.8C478.165 706.8 479.12 706.596 480 706.2C481.5 705.3 481.5 703.8 480 702.9C478.389 702.181 476.563 702.109 474.9 702.7L461.5 695L460.6 694.5L439.3 682.2V669.5L483.8 643.9L484.7 643.4L502.3 633.2L502.5 633V595.7L450.1 565.4L449.2 564.9L447.1 563.7L458.3 557.2L460.4 558.4L461.3 558.9L530.2 598.7V666.9L551.1 679V741.8L637.2 791.5C636.5 792.3 636.9 793.3 638.1 793.9C638.947 794.349 639.891 794.583 640.85 794.583C641.809 794.583 642.753 794.349 643.6 793.9C645.2 793.1 645.2 791.6 643.6 790.7C642.753 790.252 641.809 790.017 640.85 790.017C639.891 790.017 638.947 790.252 638.1 790.7L637.9 790.9L552 741.3V679.6L735.1 785.4C734 786.3 734.1 787.5 735.6 788.3C736.465 788.749 737.425 788.983 738.4 788.983C739.375 788.983 740.335 788.749 741.2 788.3C742.7 787.5 742.7 786 741.2 785.1C739.589 784.381 737.763 784.309 736.1 784.9L531 666.5V598.3L462.1 558.5L461.1 558L459.1 556.8L471.8 549.4L473.9 550.6L474.8 551.1L541.8 589.8L541.6 590.2L608.1 628.6V637.1L619.4 643.6L620.3 644.1L621.6 644.8V668.9L720.9 726.1C719.8 726.9 720 728.3 721.3 729C722.151 729.492 723.117 729.75 724.1 729.75C725.083 729.75 726.049 729.492 726.9 729C728.4 728.2 728.4 726.7 726.9 725.9C726.15 725.457 725.306 725.199 724.436 725.147C723.567 725.095 722.698 725.25 721.9 725.6L622.5 668.3V645.3L639.6 655.1C638.6 656.1 638.6 657.3 640.1 658.2C640.98 658.596 641.935 658.8 642.9 658.8C643.865 658.8 644.82 658.596 645.7 658.2C647.2 657.2 647.2 655.8 645.7 654.9C644.915 654.501 644.052 654.276 643.172 654.241C642.292 654.207 641.414 654.363 640.6 654.7L620.3 643L619.4 642.5L609 636.5V628L543.1 589.9H573.7L705.6 666.1V686L758 716.2C756.8 717.1 756.9 718.4 758.3 719.2C759.147 719.649 760.091 719.883 761.05 719.883C762.009 719.883 762.953 719.649 763.8 719.2C765.4 718.3 765.4 716.8 763.8 716C763.042 715.58 762.199 715.336 761.334 715.284C760.469 715.232 759.603 715.374 758.8 715.7L706.5 685.5V665.6L575.4 589.9H664.7L772 651.9H791L864.5 609.4C865.307 609.766 866.188 609.939 867.074 609.904C867.959 609.869 868.824 609.628 869.6 609.2C871.1 608.4 871.1 606.9 869.6 606.1ZM737 520.5L736.1 520L735.2 520.5L736.2 521.1L737 520.5Z" fill="#0D0A3F" stroke="#3F3FC2"/>
<path d="M393.9 368.7C392.3 369.6 392.3 371 393.9 371.8C394.932 372.383 396.121 372.628 397.3 372.5V368.1C396.133 367.992 394.959 368.199 393.9 368.7ZM394.6 400.3C394.966 400.085 395.232 399.735 395.34 399.325C395.449 398.915 395.391 398.478 395.18 398.11C394.981 397.776 394.669 397.524 394.3 397.4C393.506 396.972 392.625 396.731 391.723 396.696C390.822 396.661 389.924 396.834 389.1 397.2L388.7 397.4L388.2 397.7C387.2 398.5 387.4 399.7 388.7 400.6C390.279 401.309 392.07 401.381 393.7 400.8L397.3 402.9V401.8L394.6 400.3ZM397.3 335.3L317.8 381.2H317.6V423.5H317.7L323.2 426.7L397.3 469.4V468.4L386.9 462.4V440.4L345.2 416.3V395.8C346.005 395.721 346.787 395.483 347.5 395.1C349 394.3 349 392.9 347.5 391.9C346.635 391.451 345.675 391.217 344.7 391.217C343.725 391.217 342.765 391.451 341.9 391.9C340.4 392.9 340.4 394.3 341.9 395.1C342.649 395.482 343.463 395.719 344.3 395.8V417L385.9 441.1V462.1L318.6 423.2H318.5V381.8L355 360.7H388.7L397.3 355.8V354.7L388.5 359.8H356.6L397.3 336.3V335.3ZM574.4 534.4C573.64 533.985 572.798 533.743 571.934 533.691C571.069 533.639 570.204 533.779 569.4 534.1L557.9 527.5H556.1L568.5 534.6C567.3 535.5 567.5 536.8 568.9 537.6C569.855 538.091 570.931 538.299 572 538.2C572.831 538.158 573.646 537.954 574.4 537.6C574.676 537.463 574.917 537.266 575.107 537.024C575.298 536.782 575.432 536.501 575.5 536.2C575.544 535.82 575.46 535.437 575.261 535.11C575.061 534.784 574.758 534.534 574.4 534.4ZM778.5 541.9C777.752 541.497 776.922 541.269 776.073 541.234C775.224 541.2 774.378 541.359 773.6 541.7L749.1 527.5H747.3L772.7 542.2C771.5 543.1 771.6 544.3 773 545.1C773.847 545.549 774.791 545.783 775.75 545.783C776.709 545.783 777.653 545.549 778.5 545.1C780.1 544.2 780.1 542.8 778.5 541.9ZM735.2 520.5L736.2 521.1L737 520.5L736.1 520L735.2 520.5ZM797.9 618.7C797.101 618.341 796.237 618.146 795.36 618.129C794.484 618.112 793.613 618.272 792.8 618.6L772.5 606.8H724L661.1 570.4L659.6 569.6L658 568.7H715L742.5 584.5C741.3 585.3 741.5 586.6 742.8 587.4C743.651 587.892 744.617 588.151 745.6 588.151C746.583 588.151 747.549 587.892 748.4 587.4C749.9 586.5 749.9 585.1 748.4 584.3C747.65 583.857 746.806 583.599 745.936 583.547C745.067 583.495 744.197 583.65 743.4 584L715.3 567.8H656.5L636.8 556.4H560L547.7 549.3L546.5 548.6H579.3L595.7 539.1H664L683 550.2H721.7C721.949 550.694 722.33 551.109 722.8 551.4C723.665 551.849 724.625 552.083 725.6 552.083C726.575 552.083 727.535 551.849 728.4 551.4C729.9 550.5 729.9 549.1 728.4 548.2C727.535 547.751 726.575 547.517 725.6 547.517C724.625 547.517 723.665 547.751 722.8 548.2C722.289 548.439 721.893 548.87 721.7 549.4H683.4L665.2 538.8L664.3 538.3H597.3L597.8 538L615.7 527.7C616.449 528.006 617.252 528.155 618.06 528.138C618.869 528.121 619.665 527.938 620.4 527.6H614.1L578.9 547.9H545L512.8 529.2L515.6 527.6H513.9L501.3 534.9L500.5 535.4L488.9 542L488 542.5L474.8 550.1L473.9 550.6L461.1 558L460.4 558.4L449.2 564.9L448.3 565.4L431.3 575.2L430.4 575.7L419.8 581.8L400.5 570.6L399.6 570.1L399.4 569.9H399.2L382.8 560.4L381.9 559.9L365.8 550.6L364.9 550.1L322 525.3L321.2 524.8L316.6 522.2L318.7 521L319.6 520.6L397.3 475.7V474.6L384.8 481.9L382.8 480.7L381.8 480.2L241.7 399.3V349.9L192.7 321.7C193.9 320.9 193.7 319.6 192.4 318.8C191.535 318.351 190.575 318.117 189.6 318.117C188.625 318.117 187.665 318.351 186.8 318.8C185.2 319.7 185.2 321.1 186.8 322C187.566 322.404 188.412 322.632 189.277 322.666C190.142 322.701 191.004 322.542 191.8 322.2L240.7 350.4V399.8L380.9 480.7L381.9 481.3L383.8 482.4L367.8 491.7L365.8 490.5L364.9 490L347.2 479.8L226.3 410H141.8L136.2 406.8L135.2 406.2L89.1 379.5V332.7L90.6 332.2C92.1 331.3 92.1 329.8 90.6 328.9C89.7372 328.505 88.7992 328.3 87.85 328.3C86.9009 328.3 85.9629 328.505 85.1 328.9C83.5 329.8 83.5 331.3 85.1 332.2C86.0697 332.648 87.1334 332.854 88.2 332.8V380L135.2 407.2L136.2 407.7L141.5 410.8H226L345.4 479.8H321.5L280.8 456.4H249.3L205.6 481.6C204.804 481.259 203.942 481.1 203.077 481.134C202.212 481.169 201.366 481.397 200.6 481.8C199 482.8 199 484.2 200.6 485C201.447 485.449 202.391 485.683 203.35 485.683C204.309 485.683 205.253 485.449 206.1 485C207.4 484.3 207.6 483 206.5 482.1L249.5 457.3H280.5L321.2 480.7H347L364.1 490.5L364.9 491L366.9 492.2L324 517L322 515.8L321.2 515.3L311.9 509.9V491.4L291.8 479.9L290.9 479.4L280.9 473.6C282 472.7 281.9 471.4 280.5 470.6C279.637 470.205 278.699 470 277.75 470C276.801 470 275.863 470.205 275 470.6C273.4 471.5 273.4 472.9 275 473.9C275.781 474.262 276.629 474.458 277.49 474.475C278.35 474.492 279.205 474.331 280 474L290.1 479.9L290.9 480.4L311 491.9V509.4L299.5 502.8L298.6 502.3L278.1 490.4H262.3L243.6 501.1C242.774 500.804 241.896 500.678 241.019 500.729C240.143 500.781 239.286 501.009 238.5 501.4C237 502.3 237 503.7 238.5 504.6C239.365 505.049 240.325 505.283 241.3 505.283C242.275 505.283 243.235 505.049 244.1 504.6C245.4 503.8 245.6 502.6 244.4 501.6L262.6 491.2H277.7L297.8 502.8L298.6 503.3L320.3 515.8L321.2 516.3L323.2 517.5L318.7 520.1L317.9 520.6L315.6 521.9L314.9 522.2L320.3 525.4L321.1 525.8L341.2 537.5L328.9 544.6H310.3L299.5 538.4L298.6 537.9L296.9 536.9C297.9 536 297.7 534.8 296.5 534C295.653 533.552 294.709 533.318 293.75 533.318C292.791 533.318 291.847 533.552 291 534C289.4 534.9 289.4 536.3 291 537.2C291.783 537.607 292.646 537.835 293.528 537.87C294.409 537.904 295.287 537.744 296.1 537.4L297.7 538.4L298.6 538.9L309.9 545.4H327.3L295.9 563.6L291.7 561.2L290.8 560.7L273.6 550.7L272 549.8L221.9 521H168.6L138.5 538.4C137.68 538.088 136.806 537.944 135.93 537.979C135.053 538.013 134.193 538.225 133.4 538.6C131.9 539.5 131.9 540.9 133.4 541.8C134.265 542.249 135.225 542.483 136.2 542.483C137.175 542.483 138.135 542.249 139 541.8C140.3 541 140.5 539.7 139.4 538.8L168.8 521.8H221.7L270.3 550L271.9 550.9L278.7 554.8H254.3L230.4 541C230.579 540.891 230.735 540.747 230.859 540.577C230.982 540.406 231.071 540.213 231.119 540.009C231.167 539.804 231.175 539.592 231.141 539.385C231.106 539.177 231.031 538.979 230.92 538.8C230.711 538.461 230.383 538.212 230 538.1C229.167 537.61 228.217 537.351 227.25 537.351C226.283 537.351 225.333 537.61 224.5 538.1C222.9 538.9 222.9 540.3 224.5 541.2C225.266 541.604 226.112 541.832 226.977 541.866C227.842 541.901 228.704 541.742 229.5 541.4L254 555.5H280.3L290 561.1L290.9 561.7L295.1 564.1L260.8 583.8L259.2 584.7L257.5 585.7H137.3L44 531.9C45 531 44.9 529.9 43.6 529C42.7196 528.605 41.7653 528.4 40.8 528.4C39.8347 528.4 38.8804 528.605 38 529C36.4 529.9 36.4 531.4 38 532.3C38.798 532.665 39.6624 532.862 40.5396 532.879C41.4169 532.897 42.2883 532.734 43.1 532.4L137 586.7H255.9L241 595.4H152.1L108.8 620.3H108.6C107.753 619.852 106.809 619.618 105.85 619.618C104.891 619.618 103.947 619.852 103.1 620.3C101.5 621.2 101.5 622.6 103.1 623.5C103.947 623.949 104.891 624.183 105.85 624.183C106.809 624.183 107.753 623.949 108.6 623.5C109.7 622.8 110 621.8 109.4 621L152.3 596.3H241.2L261 584.8L262.6 583.9L342.2 538L353.5 544.5L325.9 560.4L324.5 561.2L247.4 605.7H169.9L76.2 659.8H66.5L12.2 628.4C13.3 627.5 13.2 626.3 11.7 625.5C10.8372 625.105 9.89917 624.9 8.95001 624.9C8.00085 624.9 7.06286 625.105 6.20001 625.5C4.70001 626.4 4.70001 627.9 6.20001 628.8C6.98114 629.162 7.82886 629.358 8.68952 629.375C9.55018 629.392 10.405 629.231 11.2 628.9L66.1 660.7H76.4L135.2 626.8V646.8L96.5 669.2C95.6859 668.863 94.8085 668.707 93.9281 668.741C93.0477 668.776 92.1852 669.001 91.4 669.4C89.9 670.3 89.9 671.7 91.4 672.5C92.2513 672.992 93.217 673.251 94.2 673.251C95.183 673.251 96.1487 672.992 97 672.5C98.4 671.8 98.5 670.6 97.4 669.7L135.9 647.4H136.1V626.4H135.9L170.1 606.7H247.6L326.1 561.3L327.5 560.5L354.3 545L364.1 550.7L365 551.2L366.9 552.3L160.5 671.5H160.2V714.8L44.8 781.6C43.9804 781.288 43.106 781.144 42.2296 781.179C41.3531 781.213 40.4926 781.425 39.7 781.8C38.2 782.7 38.2 784.1 39.7 784.9C40.5513 785.392 41.517 785.651 42.5 785.651C43.483 785.651 44.4487 785.392 45.3 784.9C45.5982 784.815 45.8652 784.645 46.0685 784.411C46.2718 784.176 46.4025 783.888 46.4449 783.581C46.4873 783.273 46.4395 782.96 46.3072 782.68C46.175 782.399 45.964 782.163 45.7 782L160.9 715.6L161.1 715.4V672.1L367.9 552.8L381.1 560.4L381.9 560.9L383.6 561.8L277.1 623.3H276.9V634.4L258 645.3V670.6L241.7 680L240.9 680.5L221.2 691.8C220.422 691.459 219.576 691.3 218.727 691.334C217.878 691.369 217.048 691.597 216.3 692C214.7 692.9 214.7 694.4 216.3 695.2C217.147 695.649 218.091 695.883 219.05 695.883C220.009 695.883 220.953 695.649 221.8 695.2C223.2 694.5 223.4 693.2 222.2 692.4L240.9 681.6L241.7 681.1L258.6 671.3L258.9 671.1V645.8L276.9 635.5V676L287.5 682.1L225.3 718.1H225.1V758.6L180.6 784.3C178.929 783.77 177.125 783.84 175.5 784.5C174 785.4 174 786.9 175.5 787.8C176.38 788.196 177.335 788.401 178.3 788.401C179.265 788.401 180.22 788.196 181.1 787.8C182.5 786.9 182.7 785.7 181.6 784.8L225.7 759.3L225.9 759.1V718.7L288.4 682.7L390 741.3V786.7C389.212 786.809 388.44 787.011 387.7 787.3C386.2 788.2 386.2 789.6 387.7 790.5C388.565 790.949 389.525 791.183 390.5 791.183C391.475 791.183 392.435 790.949 393.3 790.5C394.8 789.6 394.8 788.2 393.3 787.3C392.566 786.992 391.791 786.79 391 786.7V740.8L329.6 705.4H374.1L410.1 726.1C409 727 409.1 728.3 410.5 729.1C411.365 729.549 412.325 729.783 413.3 729.783C414.275 729.783 415.235 729.549 416.1 729.1C417.7 728.2 417.7 726.8 416.1 725.9C415.315 725.501 414.452 725.276 413.572 725.241C412.692 725.207 411.814 725.363 411 725.7L374.5 704.5H328.1L277.8 675.5V623.9L384.4 562.3L398.5 570.4L322.9 614C322.131 613.74 321.317 613.64 320.508 613.709C319.699 613.778 318.914 614.013 318.2 614.4C316.8 615.2 316.7 616.5 317.8 617.4C317.845 617.464 317.906 617.515 317.975 617.55C318.045 617.585 318.122 617.602 318.2 617.6L318.8 617.9C319.608 618.201 320.471 618.33 321.332 618.279C322.193 618.227 323.033 617.996 323.8 617.6C325 616.8 325.2 615.6 324.3 614.7L323.9 614.5L399.3 570.9L399.7 571.1L413.5 579.1L386.9 594.4L386.1 594.8L323.2 631.2H298.7C298.421 630.728 298.046 630.319 297.6 630C296.72 629.605 295.765 629.4 294.8 629.4C293.835 629.4 292.88 629.605 292 630C290.4 631 290.4 632.4 292 633.2C292.865 633.649 293.825 633.883 294.8 633.883C295.775 633.883 296.735 633.649 297.6 633.2C298.058 632.97 298.414 632.578 298.6 632.1H323.3L386.1 595.8L386.9 595.4L414.3 579.6L419.7 582.7H419.8L424.1 580.2L430.4 583.9L431.3 584.3L445.8 592.7V610.1L431.3 618.4L430.4 618.9L427.9 620.4H399.8L369 638.3C368.186 637.963 367.308 637.807 366.428 637.841C365.548 637.876 364.685 638.101 363.9 638.5C362.4 639.4 362.4 640.8 363.9 641.7C364.765 642.149 365.725 642.383 366.7 642.383C367.675 642.383 368.635 642.149 369.5 641.7C370.9 640.9 371 639.7 369.9 638.8L400.1 621.3H426.5L393.6 640.3L388.2 643.4L373.9 651.7C373.093 651.334 372.212 651.162 371.326 651.196C370.441 651.231 369.576 651.472 368.8 651.9C367.2 652.7 367.2 654.2 368.8 655.1C369.647 655.549 370.591 655.783 371.55 655.783C372.509 655.783 373.453 655.549 374.3 655.1C375.6 654.3 375.8 653 374.8 652.2L389 644L431.3 619.6L440.3 614.4V622.7L401.5 645.1L401.3 645.3V661.2L369.6 679.5C368.786 679.163 367.908 679.007 367.028 679.041C366.148 679.076 365.285 679.301 364.5 679.7C364.172 679.852 363.894 680.095 363.7 680.4C363.512 680.664 363.408 680.977 363.4 681.3C363.425 681.641 363.54 681.968 363.733 682.25C363.926 682.531 364.191 682.755 364.5 682.9C365.347 683.349 366.291 683.583 367.25 683.583C368.209 683.583 369.153 683.349 370 682.9C370.33 682.773 370.617 682.555 370.829 682.272C371.041 681.989 371.17 681.653 371.2 681.3C371.192 680.977 371.088 680.664 370.9 680.4L370.5 680L402 661.7H402.2V645.8L440.9 623.3H441.2V613.9L446.4 610.9L446.6 610.7V592.3L431.3 583.4L430.4 582.9L425 579.8L430.4 576.7L431.3 576.2L439.3 571.6L458.9 582.9L459.8 583.5L483.8 597.3V626.3L453.4 643.9C452.596 643.579 451.731 643.439 450.866 643.491C450.002 643.543 449.16 643.785 448.4 644.2C446.9 645 446.9 646.4 448.4 647.4C449.265 647.849 450.225 648.083 451.2 648.083C452.175 648.083 453.135 647.849 454 647.4C455.3 646.5 455.5 645.3 454.3 644.4L483.8 627.4V651.2L460.8 664.4H460.6V709C459.776 709.021 458.963 709.19 458.2 709.5C456.7 710.5 456.7 711.9 458.2 712.7C459.086 713.139 460.061 713.368 461.05 713.368C462.039 713.368 463.014 713.139 463.9 712.7C465.4 711.9 465.4 710.5 463.9 709.5C463.137 709.19 462.324 709.021 461.5 709V665L483.8 652.2V729C482.962 728.996 482.137 729.202 481.4 729.6C479.9 730.5 479.9 732 481.4 732.8C482.265 733.249 483.225 733.483 484.2 733.483C485.175 733.483 486.135 733.249 487 732.8C488.5 732 488.5 730.5 487 729.6C486.299 729.203 485.506 728.996 484.7 729V596.8L459.8 582.4L458.9 581.9L440.2 571.1L449.2 565.9L450.1 565.4L456.2 561.9L514.4 595.5V675.5L542.4 691.6V721.7L551.1 726.7L552 727.3L567 735.9C566.821 736.01 566.665 736.154 566.541 736.324C566.418 736.494 566.329 736.687 566.281 736.892C566.233 737.096 566.225 737.309 566.259 737.516C566.294 737.723 566.369 737.922 566.48 738.1C566.689 738.439 567.017 738.689 567.4 738.8C568.265 739.249 569.225 739.483 570.2 739.483C571.175 739.483 572.135 739.249 573 738.8C574.5 738 574.5 736.6 573 735.6C572.215 735.201 571.352 734.976 570.472 734.941C569.592 734.907 568.714 735.063 567.9 735.4L552 726.2L551.1 725.7L543.2 721.2V691.1L515.1 675V595L457 561.4L461.3 558.9L462.1 558.5L468.8 554.6L547.3 599.9V668.1L617 708.4C615.8 709.2 616 710.5 617.3 711.3C618.165 711.749 619.125 711.983 620.1 711.983C621.075 711.983 622.035 711.749 622.9 711.3C624.5 710.4 624.5 709 622.9 708.1C622.134 707.697 621.288 707.469 620.423 707.434C619.558 707.4 618.696 707.559 617.9 707.9L548.1 667.6V599.4L469.6 554.1L474.8 551.1L475.7 550.6L488.8 543.1L568.5 589.1L570 589.9L619.4 618.5V652.5L621.6 653.7L622.5 654.2L728.9 715.6C727.8 716.6 727.9 717.8 729.3 718.6C730.165 719.049 731.125 719.283 732.1 719.283C733.075 719.283 734.035 719.049 734.9 718.6C736.4 717.7 736.4 716.3 734.9 715.4C734.114 715.009 733.257 714.781 732.381 714.729C731.504 714.678 730.626 714.804 729.8 715.1L622.5 653.2L621.6 652.8L620.3 652V618L571.9 589.9L570.4 589.1L546.9 575.5H605L628.6 589.1L630 589.9L672.2 614.3C671 615.1 671.1 616.4 672.6 617.2C673.447 617.649 674.391 617.883 675.35 617.883C676.309 617.883 677.253 617.649 678.1 617.2C679.7 616.3 679.7 614.9 678.1 614C677.352 613.597 676.522 613.369 675.673 613.334C674.824 613.3 673.978 613.459 673.2 613.8L631.8 589.9L630.4 589.1L605.3 574.6H545.4L538.1 570.4L489.7 542.5H489.8L501.4 535.8L502.2 535.3L511.9 529.7L544.5 548.4L545.9 549.3L559.6 557.1H636.4L657.9 569.5L659.3 570.3L723.6 607.5H772.2L791.9 619C790.8 619.9 790.9 621.1 792.3 621.9C793.18 622.296 794.135 622.501 795.1 622.501C796.065 622.501 797.02 622.296 797.9 621.9C799.4 621.1 799.4 619.7 797.9 618.7ZM545 547.8L512.8 529.1L515.6 527.5H513.9L501.3 534.8L500.5 535.3L501.4 535.8L502.2 535.3L511.9 529.7L544.5 548.4H554.4L555.6 547.8H545Z" fill="#0D0A3F"/>
<path d="M397.3 469.6L398.8 470.4M501.4 535.8L489.8 542.5H489.7L538.1 570.4L545.4 574.6H605.3L630.4 589.1L631.8 589.9L673.2 613.8C673.978 613.459 674.824 613.3 675.673 613.334C676.522 613.369 677.352 613.597 678.1 614C679.7 614.9 679.7 616.3 678.1 617.2C677.253 617.649 676.309 617.883 675.35 617.883C674.391 617.883 673.447 617.649 672.6 617.2C671.1 616.4 671 615.1 672.2 614.3L630 589.9L628.6 589.1L605 575.5H546.9L570.4 589.1L571.9 589.9L620.3 618V652L621.6 652.8L622.5 653.2L729.8 715.1C730.626 714.804 731.504 714.678 732.381 714.729C733.257 714.781 734.114 715.009 734.9 715.4C736.4 716.3 736.4 717.7 734.9 718.6C734.035 719.049 733.075 719.283 732.1 719.283C731.125 719.283 730.165 719.049 729.3 718.6C727.9 717.8 727.8 716.6 728.9 715.6L622.5 654.2L621.6 653.7L619.4 652.5V618.5L570 589.9L568.5 589.1L488.8 543.1L475.7 550.6L474.8 551.1L469.6 554.1L548.1 599.4V667.6L617.9 707.9C618.696 707.559 619.558 707.4 620.423 707.434C621.288 707.469 622.134 707.697 622.9 708.1C624.5 709 624.5 710.4 622.9 711.3C622.035 711.749 621.075 711.983 620.1 711.983C619.125 711.983 618.165 711.749 617.3 711.3C616 710.5 615.8 709.2 617 708.4L547.3 668.1V599.9L468.8 554.6L462.1 558.5L461.3 558.9L457 561.4L515.1 595V675L543.2 691.1V721.2L551.1 725.7L552 726.2L567.9 735.4C568.714 735.063 569.592 734.907 570.472 734.941C571.352 734.976 572.215 735.201 573 735.6C574.5 736.6 574.5 738 573 738.8C572.135 739.249 571.175 739.483 570.2 739.483C569.225 739.483 568.265 739.249 567.4 738.8C567.017 738.689 566.689 738.439 566.48 738.1C566.369 737.922 566.294 737.723 566.259 737.516C566.225 737.309 566.233 737.096 566.281 736.892C566.329 736.687 566.418 736.494 566.541 736.324C566.665 736.154 566.821 736.01 567 735.9L552 727.3L551.1 726.7L542.4 721.7V691.6L514.4 675.5V595.5L456.2 561.9L450.1 565.4L449.2 565.9L440.2 571.1L458.9 581.9L459.8 582.4L484.7 596.8V729C485.506 728.996 486.299 729.203 487 729.6C488.5 730.5 488.5 732 487 732.8C486.135 733.249 485.175 733.483 484.2 733.483C483.225 733.483 482.265 733.249 481.4 732.8C479.9 732 479.9 730.5 481.4 729.6C482.137 729.202 482.962 728.996 483.8 729V652.2L461.5 665V709C462.324 709.021 463.137 709.19 463.9 709.5C465.4 710.5 465.4 711.9 463.9 712.7C463.014 713.139 462.039 713.368 461.05 713.368C460.061 713.368 459.086 713.139 458.2 712.7C456.7 711.9 456.7 710.5 458.2 709.5C458.963 709.19 459.776 709.021 460.6 709V664.4H460.8L483.8 651.2V627.4L454.3 644.4C455.5 645.3 455.3 646.5 454 647.4C453.135 647.849 452.175 648.083 451.2 648.083C450.225 648.083 449.265 647.849 448.4 647.4C446.9 646.4 446.9 645 448.4 644.2C449.16 643.785 450.002 643.543 450.866 643.491C451.731 643.439 452.596 643.579 453.4 643.9L483.8 626.3V597.3L459.8 583.5L458.9 582.9L439.3 571.6L431.3 576.2L430.4 576.7L425 579.8L430.4 582.9L431.3 583.4L446.6 592.3V610.7L446.4 610.9L441.2 613.9V623.3H440.9L402.2 645.8V661.7H402L370.5 680L370.9 680.4C371.088 680.664 371.192 680.977 371.2 681.3C371.17 681.653 371.041 681.989 370.829 682.272C370.617 682.555 370.33 682.773 370 682.9C369.153 683.349 368.209 683.583 367.25 683.583C366.291 683.583 365.347 683.349 364.5 682.9C364.191 682.755 363.926 682.531 363.733 682.25C363.54 681.968 363.425 681.641 363.4 681.3C363.408 680.977 363.512 680.664 363.7 680.4C363.894 680.095 364.172 679.852 364.5 679.7C365.285 679.301 366.148 679.076 367.028 679.041C367.908 679.007 368.786 679.163 369.6 679.5L401.3 661.2V645.3L401.5 645.1L440.3 622.7V614.4L431.3 619.6L389 644L374.8 652.2C375.8 653 375.6 654.3 374.3 655.1C373.453 655.549 372.509 655.783 371.55 655.783C370.591 655.783 369.647 655.549 368.8 655.1C367.2 654.2 367.2 652.7 368.8 651.9C369.576 651.472 370.441 651.231 371.326 651.196C372.212 651.162 373.093 651.334 373.9 651.7L388.2 643.4L393.6 640.3L426.5 621.3H400.1L369.9 638.8C371 639.7 370.9 640.9 369.5 641.7C368.635 642.149 367.675 642.383 366.7 642.383C365.725 642.383 364.765 642.149 363.9 641.7C362.4 640.8 362.4 639.4 363.9 638.5C364.685 638.101 365.548 637.876 366.428 637.841C367.308 637.807 368.186 637.963 369 638.3L399.8 620.4H427.9L430.4 618.9L431.3 618.4L445.8 610.1V592.7L431.3 584.3L430.4 583.9L424.1 580.2L419.8 582.7H419.7L414.3 579.6L386.9 595.4L386.1 595.8L323.3 632.1H298.6C298.414 632.578 298.058 632.97 297.6 633.2C296.735 633.649 295.775 633.883 294.8 633.883C293.825 633.883 292.865 633.649 292 633.2C290.4 632.4 290.4 631 292 630C292.88 629.605 293.835 629.4 294.8 629.4C295.765 629.4 296.72 629.605 297.6 630C298.046 630.319 298.421 630.728 298.7 631.2H323.2L386.1 594.8L386.9 594.4L413.5 579.1L399.7 571.1L399.3 570.9L323.9 614.5L324.3 614.7C325.2 615.6 325 616.8 323.8 617.6C323.033 617.996 322.193 618.227 321.332 618.279C320.471 618.33 319.608 618.201 318.8 617.9L318.2 617.6C318.122 617.602 318.045 617.585 317.975 617.55C317.906 617.515 317.845 617.464 317.8 617.4C316.7 616.5 316.8 615.2 318.2 614.4C318.914 614.013 319.699 613.778 320.508 613.709C321.317 613.64 322.131 613.74 322.9 614L398.5 570.4L384.4 562.3L277.8 623.9V675.5L328.1 704.5H374.5L411 725.7C411.814 725.363 412.692 725.207 413.572 725.241C414.452 725.276 415.315 725.501 416.1 725.9C417.7 726.8 417.7 728.2 416.1 729.1C415.235 729.549 414.275 729.783 413.3 729.783C412.325 729.783 411.365 729.549 410.5 729.1C409.1 728.3 409 727 410.1 726.1L374.1 705.4H329.6L391 740.8V786.7C391.791 786.79 392.566 786.992 393.3 787.3C394.8 788.2 394.8 789.6 393.3 790.5C392.435 790.949 391.475 791.183 390.5 791.183C389.525 791.183 388.565 790.949 387.7 790.5C386.2 789.6 386.2 788.2 387.7 787.3C388.44 787.011 389.212 786.809 390 786.7V741.3L288.4 682.7L225.9 718.7V759.1L225.7 759.3L181.6 784.8C182.7 785.7 182.5 786.9 181.1 787.8C180.22 788.196 179.265 788.401 178.3 788.401C177.335 788.401 176.38 788.196 175.5 787.8C174 786.9 174 785.4 175.5 784.5C177.125 783.84 178.929 783.77 180.6 784.3L225.1 758.6V718.1H225.3L287.5 682.1L276.9 676V635.5L258.9 645.8V671.1L258.6 671.3L241.7 681.1L240.9 681.6L222.2 692.4C223.4 693.2 223.2 694.5 221.8 695.2C220.953 695.649 220.009 695.883 219.05 695.883C218.091 695.883 217.147 695.649 216.3 695.2C214.7 694.4 214.7 692.9 216.3 692C217.048 691.597 217.878 691.369 218.727 691.334C219.576 691.3 220.422 691.459 221.2 691.8L240.9 680.5L241.7 680L258 670.6V645.3L276.9 634.4V623.3H277.1L383.6 561.8L381.9 560.9L381.1 560.4L367.9 552.8L161.1 672.1V715.4L160.9 715.6L45.7 782C45.964 782.163 46.175 782.399 46.3072 782.68C46.4395 782.96 46.4873 783.273 46.4449 783.581C46.4025 783.888 46.2718 784.176 46.0685 784.411C45.8652 784.645 45.5982 784.815 45.3 784.9C44.4487 785.392 43.483 785.651 42.5 785.651C41.517 785.651 40.5513 785.392 39.7 784.9C38.2 784.1 38.2 782.7 39.7 781.8C40.4926 781.425 41.3531 781.213 42.2296 781.179C43.106 781.144 43.9804 781.288 44.8 781.6L160.2 714.8V671.5H160.5L366.9 552.3L365 551.2L364.1 550.7L354.3 545L327.5 560.5L326.1 561.3L247.6 606.7H170.1L135.9 626.4H136.1V647.4H135.9L97.4 669.7C98.5 670.6 98.4 671.8 97 672.5C96.1487 672.992 95.183 673.251 94.2 673.251C93.217 673.251 92.2513 672.992 91.4 672.5C89.9 671.7 89.9 670.3 91.4 669.4C92.1852 669.001 93.0477 668.776 93.9281 668.741C94.8085 668.707 95.6859 668.863 96.5 669.2L135.2 646.8V626.8L76.4 660.7H66.1L11.2 628.9C10.405 629.231 9.55018 629.392 8.68952 629.375C7.82886 629.358 6.98114 629.162 6.20001 628.8C4.70001 627.9 4.70001 626.4 6.20001 625.5C7.06286 625.105 8.00085 624.9 8.95001 624.9C9.89917 624.9 10.8372 625.105 11.7 625.5C13.2 626.3 13.3 627.5 12.2 628.4L66.5 659.8H76.2L169.9 605.7H247.4L324.5 561.2L325.9 560.4L353.5 544.5L342.2 538L262.6 583.9L261 584.8L241.2 596.3H152.3L109.4 621C110 621.8 109.7 622.8 108.6 623.5C107.753 623.949 106.809 624.183 105.85 624.183C104.891 624.183 103.947 623.949 103.1 623.5C101.5 622.6 101.5 621.2 103.1 620.3C103.947 619.852 104.891 619.618 105.85 619.618C106.809 619.618 107.753 619.852 108.6 620.3H108.8L152.1 595.4H241L255.9 586.7H137L43.1 532.4C42.2883 532.734 41.4169 532.897 40.5396 532.879C39.6624 532.862 38.798 532.665 38 532.3C36.4 531.4 36.4 529.9 38 529C38.8804 528.605 39.8347 528.4 40.8 528.4C41.7653 528.4 42.7196 528.605 43.6 529C44.9 529.9 45 531 44 531.9L137.3 585.7H257.5L259.2 584.7L260.8 583.8L295.1 564.1L290.9 561.7L290 561.1L280.3 555.5H254L229.5 541.4C228.704 541.742 227.842 541.901 226.977 541.866C226.112 541.832 225.266 541.604 224.5 541.2C222.9 540.3 222.9 538.9 224.5 538.1C225.333 537.61 226.283 537.351 227.25 537.351C228.217 537.351 229.167 537.61 230 538.1C230.383 538.212 230.711 538.461 230.92 538.8C231.031 538.979 231.106 539.177 231.141 539.385C231.175 539.592 231.167 539.804 231.119 540.009C231.071 540.213 230.982 540.406 230.859 540.577C230.735 540.747 230.579 540.891 230.4 541L254.3 554.8H278.7L271.9 550.9L270.3 550L221.7 521.8H168.8L139.4 538.8C140.5 539.7 140.3 541 139 541.8C138.135 542.249 137.175 542.483 136.2 542.483C135.225 542.483 134.265 542.249 133.4 541.8C131.9 540.9 131.9 539.5 133.4 538.6C134.193 538.225 135.053 538.013 135.93 537.979C136.806 537.944 137.68 538.088 138.5 538.4L168.6 521H221.9L272 549.8L273.6 550.7L290.8 560.7L291.7 561.2L295.9 563.6L327.3 545.4H309.9L298.6 538.9L297.7 538.4L296.1 537.4C295.287 537.744 294.409 537.904 293.528 537.87C292.646 537.835 291.783 537.607 291 537.2C289.4 536.3 289.4 534.9 291 534C291.847 533.552 292.791 533.318 293.75 533.318C294.709 533.318 295.653 533.552 296.5 534C297.7 534.8 297.9 536 296.9 536.9L298.6 537.9L299.5 538.4L310.3 544.6H328.9L341.2 537.5L321.1 525.8L320.3 525.4L314.9 522.2L315.6 521.9L317.9 520.6L318.7 520.1L323.2 517.5L321.2 516.3L320.3 515.8L298.6 503.3L297.8 502.8L277.7 491.2H262.6L244.4 501.6C245.6 502.6 245.4 503.8 244.1 504.6C243.235 505.049 242.275 505.283 241.3 505.283C240.325 505.283 239.365 505.049 238.5 504.6C237 503.7 237 502.3 238.5 501.4C239.286 501.009 240.143 500.781 241.019 500.729C241.896 500.678 242.774 500.804 243.6 501.1L262.3 490.4H278.1L298.6 502.3L299.5 502.8L311 509.4V491.9L290.9 480.4L290.1 479.9L280 474C279.205 474.331 278.35 474.492 277.49 474.475C276.629 474.458 275.781 474.262 275 473.9C273.4 472.9 273.4 471.5 275 470.6C275.863 470.205 276.801 470 277.75 470C278.699 470 279.637 470.205 280.5 470.6C281.9 471.4 282 472.7 280.9 473.6L290.9 479.4L291.8 479.9L311.9 491.4V509.9L321.2 515.3L322 515.8L324 517L366.9 492.2L364.9 491L364.1 490.5L347 480.7H321.2L280.5 457.3H249.5L206.5 482.1C207.6 483 207.4 484.3 206.1 485C205.253 485.449 204.309 485.683 203.35 485.683C202.391 485.683 201.447 485.449 200.6 485C199 484.2 199 482.8 200.6 481.8C201.366 481.397 202.212 481.169 203.077 481.134C203.942 481.1 204.804 481.259 205.6 481.6L249.3 456.4H280.8L321.5 479.8H345.4L226 410.8H141.5L136.2 407.7L135.2 407.2L88.2 380V332.8C87.1334 332.854 86.0697 332.648 85.1 332.2C83.5 331.3 83.5 329.8 85.1 328.9C85.9629 328.505 86.9009 328.3 87.85 328.3C88.7992 328.3 89.7372 328.505 90.6 328.9C92.1 329.8 92.1 331.3 90.6 332.2L89.1 332.7V379.5L135.2 406.2L136.2 406.8L141.8 410H226.3L347.2 479.8L364.9 490L365.8 490.5L367.8 491.7L383.8 482.4L381.9 481.3L380.9 480.7L240.7 399.8V350.4L191.8 322.2C191.004 322.542 190.142 322.701 189.277 322.666C188.412 322.632 187.566 322.404 186.8 322C185.2 321.1 185.2 319.7 186.8 318.8C187.665 318.351 188.625 318.117 189.6 318.117C190.575 318.117 191.535 318.351 192.4 318.8C193.7 319.6 193.9 320.9 192.7 321.7L241.7 349.9V399.3L381.8 480.2L382.8 480.7L384.8 481.9L397.3 474.6V475.7L319.6 520.6L318.7 521L316.6 522.2L321.2 524.8L322 525.3L364.9 550.1L365.8 550.6L381.9 559.9L382.8 560.4L399.2 569.9H399.4L399.6 570.1L400.5 570.6L419.8 581.8L430.4 575.7L431.3 575.2L448.3 565.4L449.2 564.9L460.4 558.4L461.1 558L473.9 550.6L474.8 550.1L488 542.5L488.9 542L500.5 535.4L501.3 534.9L513.9 527.6H515.6L512.8 529.2L545 547.9H578.9L614.1 527.6H620.4C619.665 527.938 618.869 528.121 618.06 528.138C617.252 528.155 616.449 528.006 615.7 527.7L597.8 538L597.3 538.3H664.3L665.2 538.8L683.4 549.4H721.7C721.893 548.87 722.289 548.439 722.8 548.2C723.665 547.751 724.625 547.517 725.6 547.517C726.575 547.517 727.535 547.751 728.4 548.2C729.9 549.1 729.9 550.5 728.4 551.4C727.535 551.849 726.575 552.083 725.6 552.083C724.625 552.083 723.665 551.849 722.8 551.4C722.33 551.109 721.949 550.694 721.7 550.2H683L664 539.1H595.7L579.3 548.6H546.5L547.7 549.3L560 556.4H636.8L656.5 567.8H715.3L743.4 584C744.197 583.65 745.067 583.495 745.936 583.547C746.806 583.599 747.65 583.857 748.4 584.3C749.9 585.1 749.9 586.5 748.4 587.4C747.549 587.892 746.583 588.151 745.6 588.151C744.617 588.151 743.651 587.892 742.8 587.4C741.5 586.6 741.3 585.3 742.5 584.5L715 568.7H658L659.6 569.6L661.1 570.4L724 606.8H772.5L792.8 618.6C793.613 618.272 794.484 618.112 795.36 618.129C796.237 618.146 797.101 618.341 797.9 618.7C799.4 619.7 799.4 621.1 797.9 621.9C797.02 622.296 796.065 622.501 795.1 622.501C794.135 622.501 793.18 622.296 792.3 621.9C790.9 621.1 790.8 619.9 791.9 619L772.2 607.5H723.6L659.3 570.3L657.9 569.5L636.4 557.1H559.6L545.9 549.3L544.5 548.4M501.4 535.8L502.2 535.3L511.9 529.7L544.5 548.4M501.4 535.8L500.5 535.3L501.3 534.8L513.9 527.5H515.6L512.8 529.1L545 547.8H555.6L554.4 548.4H544.5M393.9 368.7C392.3 369.6 392.3 371 393.9 371.8C394.932 372.383 396.121 372.628 397.3 372.5V368.1C396.133 367.992 394.959 368.199 393.9 368.7ZM394.6 400.3C394.966 400.085 395.232 399.735 395.34 399.325C395.449 398.915 395.391 398.478 395.18 398.11C394.981 397.776 394.669 397.524 394.3 397.4C393.506 396.972 392.625 396.731 391.723 396.696C390.822 396.661 389.924 396.834 389.1 397.2L388.7 397.4L388.2 397.7C387.2 398.5 387.4 399.7 388.7 400.6C390.279 401.309 392.07 401.381 393.7 400.8L397.3 402.9V401.8L394.6 400.3ZM397.3 335.3L317.8 381.2H317.6V423.5H317.7L323.2 426.7L397.3 469.4V468.4L386.9 462.4V440.4L345.2 416.3V395.8C346.005 395.721 346.787 395.483 347.5 395.1C349 394.3 349 392.9 347.5 391.9C346.635 391.451 345.675 391.217 344.7 391.217C343.725 391.217 342.765 391.451 341.9 391.9C340.4 392.9 340.4 394.3 341.9 395.1C342.649 395.482 343.463 395.719 344.3 395.8V417L385.9 441.1V462.1L318.6 423.2H318.5V381.8L355 360.7H388.7L397.3 355.8V354.7L388.5 359.8H356.6L397.3 336.3V335.3ZM574.4 534.4C573.64 533.985 572.798 533.743 571.934 533.691C571.069 533.639 570.204 533.779 569.4 534.1L557.9 527.5H556.1L568.5 534.6C567.3 535.5 567.5 536.8 568.9 537.6C569.855 538.091 570.931 538.299 572 538.2C572.831 538.158 573.646 537.954 574.4 537.6C574.676 537.463 574.917 537.266 575.107 537.024C575.298 536.782 575.432 536.501 575.5 536.2C575.544 535.82 575.46 535.437 575.261 535.11C575.061 534.784 574.758 534.534 574.4 534.4ZM778.5 541.9C777.752 541.497 776.922 541.269 776.073 541.234C775.224 541.2 774.378 541.359 773.6 541.7L749.1 527.5H747.3L772.7 542.2C771.5 543.1 771.6 544.3 773 545.1C773.847 545.549 774.791 545.783 775.75 545.783C776.709 545.783 777.653 545.549 778.5 545.1C780.1 544.2 780.1 542.8 778.5 541.9ZM735.2 520.5L736.2 521.1L737 520.5L736.1 520L735.2 520.5Z" stroke="white"/>
<path d="M419.5 570.5L332 520L413.5 472L501.5 523L419.5 570.5Z" fill="#3B3BAE" stroke="#3F3FC2" stroke-width="3"/>
<g id="circuits">
        <g id="circuits-2">
            <g id="blue">
                <path d="M386.9,462.6l-1-.6-61.8-35.7c1.2-.8,1.1-2.1-.3-2.9a5.9,5.9,0,0,0-5.2-.2l-.4.2-.5.3c-1,.9-.8,2.1.5,2.9a6.19,6.19,0,0,0,5,.3h.1l74,42.8v-1ZM370.5,361.1a.78.78,0,0,0,.4-.4,1.2,1.2,0,0,0,.4-.9c0-.6-.4-1.1-1.2-1.6a6.83,6.83,0,0,0-5.6,0,2.08,2.08,0,0,0-1.1,1.6,1.62,1.62,0,0,0,.3.9,2.83,2.83,0,0,0,.8.7,5.81,5.81,0,0,0,5,.2l27.8,16v-1Zm18.6,36.1-14.3-8.3c1-.9.9-2.1-.5-2.8a6.08,6.08,0,0,0-5.6,0c-1.5.8-1.5,2.2,0,3.2a6.7,6.7,0,0,0,5.2.1l14.3,8.3,5.5,3.1,3.6,2.1v-1Zm-19.2,5a1.5,1.5,0,0,0-.4-2.8,5.88,5.88,0,0,0-5.5,0c-1.6.8-1.6,2.3,0,3.2a5.59,5.59,0,0,0,4.9.2l28.4,16.3v-1Zm17,43.5-1-.6-62.4-36H298.7a3,3,0,0,0-1.1-1.2,6.83,6.83,0,0,0-5.6,0c-1.5,1-1.5,2.4,0,3.3a6.83,6.83,0,0,0,5.6,0,2.51,2.51,0,0,0,1.1-1.2h24.5l62.7,36.2,1,.6,10.4,6v-1ZM869.6,606.1a6.08,6.08,0,0,0-5.6,0c-1.3.7-1.5,2-.4,2.9l-72.9,42.1H772.4L665,589.1H542.4l-66.7-38.5-.9-.5-2.1-1.2,13.2-7.7,2.1,1.3,48.4,27.9H678.5l62.8,36.4,1.5.8L778,627.9c-1.1.9-.9,2.2.4,3a6.08,6.08,0,0,0,5.6,0c1.5-.9,1.5-2.4,0-3.2a6.19,6.19,0,0,0-5-.3l-34.4-19.8-1.5-.8-64.3-37.1H573.7l21.4-12.4,1.5-.8,4.6-2.7h74.3a2.73,2.73,0,0,0,1,1.2,6.42,6.42,0,0,0,5.7,0c1.5-.9,1.5-2.4,0-3.2a6.42,6.42,0,0,0-5.7,0,1.93,1.93,0,0,0-1,1.2H601l-6.1,3.5-1.5.8L572,569.6H536.7l-46.9-27.1-.9-.5-2.2-1.3,11.7-6.7,2.1,1.3.9.5,41.2,23.8h17.9l4.2-2.4,1.4-.8L596,539.1l.5-.3H705.4L725,527.5h-1.8l-18,10.4H596.3l-18.5,10.7-13.4,7.8-1.4.8-2.8,1.6H542.9l-32.1-18.5h16.1l15.5,9h12.3l1.1-.7,1.5-.8,24.3-14.1a6.87,6.87,0,0,0,5.1-.2c1.6-1,1.6-2.4,0-3.3a6.83,6.83,0,0,0-5.6,0c-1.4.8-1.5,2.1-.4,3l-5.2,3-3.5,2-16.4,9.6-1.2.6H542.7l-15.5-9H509.3l-7.1-4.1-.9-.5-2.1-1.3,10.4-6h-1.5l-88.2,50.9L319.6,520.6l-.9-.5-2-1.2,4.5-2.6.8-.5L364.9,491l.9-.5,16.1-9.2.9-.6,14.5-8.4v-1l-12.8,7.4L277.9,417.2V365.7l50.3-29.1h46.3l22.8-13.1v-1.1l-23,13.4H329.6l61.2-35.3.2-.2V254.4a5.94,5.94,0,0,0,2.3-.6c1.6-.9,1.6-2.3,0-3.2a5.88,5.88,0,0,0-5.5,0c-1.5.9-1.5,2.3,0,3.2a6.43,6.43,0,0,0,2.4.6v45.4L288.5,358.5,226,322.4V281.8l-44.5-25.6c1.2-.9,1-2.1-.3-2.9a5.6,5.6,0,0,0-5.6,0c-1.5.9-1.5,2.3,0,3.1a5.49,5.49,0,0,0,5,.3L225,282.3v40.6L287.6,359l-10.4,6h-.3v40.6l-18-10.4V369.9L241.7,360l-1-.6-18.4-10.6c1.1-.9,1-2.1-.4-3a6.83,6.83,0,0,0-5.6,0c-1.6.9-1.6,2.4,0,3.3a6.5,6.5,0,0,0,5.1.1l19.3,11.2,1,.6,16.3,9.4v25.4l18.9,10.9v11l106.6,61.5-1.7,1-.9.5-13,7.6L161.2,368.9V325.7L45.7,259c1.2-.8,1-2.1-.3-2.9a7.07,7.07,0,0,0-5.7,0c-1.5.9-1.5,2.3,0,3.2a6.1,6.1,0,0,0,5.1.2l115.5,66.7v43.3L367,488.8l-2.1,1.2-.8.5-9.8,5.7-26.9-15.5-1.6-.9-78.1-45H170.1L135.9,415h.3V394L97.4,371.5c1.2-.8,1.1-2.1-.4-2.9a5.88,5.88,0,0,0-5.5,0c-1.5.9-1.5,2.3,0,3.2a5.81,5.81,0,0,0,5,.2l38.7,22.4v20L76.5,380.5H66.3l-55,31.7a5.81,5.81,0,0,0-5,.2c-1.6.9-1.6,2.4,0,3.2a5.88,5.88,0,0,0,5.5,0c1.4-.7,1.6-1.9.4-2.8l54.3-31.4h9.7l93.6,54h77.6l76.7,44.4,1.6.9,27.6,16-11.2,6.5-79.5-46-1.6-.9-19.6-11.4H152.3l-42.8-24.8c.5-.7.2-1.7-.9-2.4a6.08,6.08,0,0,0-5.6,0c-1.5.9-1.5,2.4,0,3.2a6.08,6.08,0,0,0,5.6,0l.3-.2,43.1,25h89l14.9,8.7H137.1L43,508.6a6.61,6.61,0,0,0-5,.2c-1.5,1-1.5,2.4,0,3.2a6.08,6.08,0,0,0,5.6,0c1.3-.7,1.5-2,.3-2.9l93.4-53.9H257.4l1.9,1.1,1.6.9L295.1,477l-4.2,2.4-.8.5-9.8,5.6H254.1l-24.6,14.1a6.19,6.19,0,0,0-5,.3c-1.6.8-1.6,2.3,0,3.2a6.08,6.08,0,0,0,5.6,0c1.3-.8,1.5-2,.4-3l23.8-13.8h24.5l-7,4.1-1.4.8-48.7,28.1H168.9l-29.5-17c1.1-.8.9-2.1-.4-2.9a6.08,6.08,0,0,0-5.6,0c-1.5.9-1.5,2.3.1,3.2a5.81,5.81,0,0,0,5,.2l30,17.3h53.4l50.3-29,1.4-.8,17.3-10,.9-.5,4.1-2.4,31.6,18.1H310.1l-11.5,6.7-.8.5-1.7.9a6.71,6.71,0,0,0-5.2.2c-1.5.9-1.5,2.4,0,3.2a6.08,6.08,0,0,0,5.6,0c1.3-.8,1.5-2,.4-2.9l1.7-.9.9-.5,10.8-6.3h18.8l12.3,7.2-20.2,11.6-.9.5-4.6,2.7-.7.4,2.9,1.7.8.4,4.5,2.7-2,1.1-.9.6-21.7,12.5-.9.5-19.9,11.5H262.5l-18-10.5c1-.9,1-2.1-.5-2.9a5.88,5.88,0,0,0-5.5,0c-1.5.9-1.5,2.3,0,3.2a6.1,6.1,0,0,0,5.1.2l18.6,10.8H278l20.6-11.9.9-.5,11.5-6.7v17.4l-20.2,11.7-.8.4-10,6a5.49,5.49,0,0,0-5,.3c-1.6.8-1.6,2.3,0,3.1a5.42,5.42,0,0,0,5.5,0,1.6,1.6,0,0,0,.4-2.9l10-5.7.8-.5,20-11.5h.2V531.2l9.2-5.4.9-.5,2-1.1,42.9,24.7-2,1.2-.8.5-17,9.8H321.3l-40.8,23.5H249.6l-43.1-24.8c1.1-.9,1-2.1-.4-3a6.6,6.6,0,0,0-5.5,0c-1.6,1-1.6,2.4,0,3.3a6.71,6.71,0,0,0,5,.2l43.6,25.2h31.5l40.8-23.6h24.1L226,630.3H141.6l-5.5,3.1-.9.6L88.5,661h-.3v47.2a5.2,5.2,0,0,0-3.2.7c-1.5.9-1.5,2.3,0,3.1a5.6,5.6,0,0,0,5.6,0c1.5-.8,1.5-2.2,0-3.1a4.54,4.54,0,0,0-1.5-.6V661.6L135.2,635l.9-.6,5.7-3.3h84.5l138.7-80,.8-.5,2-1.2,16.1,9.3-2,1.2-.8.5-140,80.8h-.2v49.3L192,718.9a6.1,6.1,0,0,0-5.1.2c-1.5.9-1.5,2.3,0,3.2a5.88,5.88,0,0,0,5.5,0c1.4-.8,1.6-2,.4-2.9l48.7-28.1.2-.2V641.8l140.2-80.9.9-.5,2-1.2,16.8,9.7-2,1.2-81.7,47.2h-.2v42.3l144,83.2c-1,.8-.9,2.1.4,2.9a6.08,6.08,0,0,0,5.6,0c1.5-.9,1.5-2.4,0-3.2a5.88,5.88,0,0,0-5-.3L356.9,681.3h31.8l57,33c-1.1.9-1,2.1.4,2.9a6.08,6.08,0,0,0,5.6,0c1.5-.9,1.5-2.3,0-3.2a6.1,6.1,0,0,0-5.1-.2L389,680.5H355.3l-36.6-21.2V618h.1l5.5-3.2L386.1,579v21l-41.6,23.9-.2.2v21.2a8.39,8.39,0,0,0-2.3.6c-1.6,1-1.6,2.4,0,3.3a6.6,6.6,0,0,0,5.5,0c1.6-.9,1.6-2.3,0-3.3a6.43,6.43,0,0,0-2.4-.6V624.6l41.5-23.9.3-.2v-22l12.8-7.4.8-.5,2-1.1,17.1,10h.3l10.5-6.1v45.9l-36.6,21.1c-.1,0-.2,0-.2-.1a6,6,0,0,0-4.9.4c-1.3.7-1.4,1.8-.5,2.7l.5.4.3.2a5.8,5.8,0,0,0,5.3-.2c1.4-.8,1.5-2.1.4-2.9l36.4-21h.2V601.2l14.5,8.3.8.5,12,6.9v17.7L398.9,669a6.18,6.18,0,0,0-5,.2c-1.6.9-1.6,2.3,0,3.2a5.88,5.88,0,0,0,5.5,0c1.4-.8,1.6-2,.5-3l59.4-34.3h.2V616.3l-12.9-7.5-.8-.4L431.3,600V572.8l14.8-8.6,2.2,1.2.9.5,9.7,5.6v16.6l19.1,11c-1.1,1-1,2.2.5,3.1a6.52,6.52,0,0,0,5.3.1h.3l.6-.5a1.49,1.49,0,0,0,.19-2.11,1.7,1.7,0,0,0-.19-.19l-.6-.5h-.3a6.2,6.2,0,0,0-4.8-.1l-19.2-11.1V572l41.8,24.2v36.3l-16.9,9.8-.9.6-45.2,26h-.2v13.8l22.2,12.7.9.6,12.5,7.2c-1.1.9-1,2.1.4,3a6.83,6.83,0,0,0,5.6,0c1.5-.9,1.5-2.4,0-3.3a6.87,6.87,0,0,0-5.1-.2L461.5,695l-.9-.5-21.3-12.3V669.5l44.5-25.6.9-.5,17.6-10.2.2-.2V595.7l-52.4-30.3-.9-.5-2.1-1.2,11.2-6.5,2.1,1.2.9.5,68.9,39.8v68.2L551.1,679v62.8l86.1,49.7c-.7.8-.3,1.8.9,2.4a5.88,5.88,0,0,0,5.5,0c1.6-.8,1.6-2.3,0-3.2a5.88,5.88,0,0,0-5.5,0l-.2.2L552,741.3V679.6L735.1,785.4c-1.1.9-1,2.1.5,2.9a6.08,6.08,0,0,0,5.6,0c1.5-.8,1.5-2.3,0-3.2a6.87,6.87,0,0,0-5.1-.2L531,666.5V598.3l-68.9-39.8-1-.5-2-1.2,12.7-7.4,2.1,1.2.9.5,67,38.7-.2.4,66.5,38.4v8.5l11.3,6.5.9.5,1.3.7v24.1l99.3,57.2c-1.1.8-.9,2.2.4,2.9a5.6,5.6,0,0,0,5.6,0c1.5-.8,1.5-2.3,0-3.1a5.49,5.49,0,0,0-5-.3l-99.4-57.3v-23l17.1,9.8c-1,1-1,2.2.5,3.1a6.83,6.83,0,0,0,5.6,0c1.5-1,1.5-2.4,0-3.3a6.1,6.1,0,0,0-5.1-.2L620.3,643l-.9-.5-10.4-6V628l-65.9-38.1h30.6l131.9,76.2V686L758,716.2c-1.2.9-1.1,2.2.3,3a5.88,5.88,0,0,0,5.5,0c1.6-.9,1.6-2.4,0-3.2a5.81,5.81,0,0,0-5-.3l-52.3-30.2V665.6L575.4,589.9h89.3l107.3,62h19l73.5-42.5a5.69,5.69,0,0,0,5.1-.2C871.1,608.4,871.1,606.9,869.6,606.1ZM737,520.5l-.9-.5-.9.5,1,.6Z"
                      stroke="#3f3fc2" fill="#0D0A3F" stroke-dashoffset="100%">
                    <animate
                            attributeName="stroke-dasharray"
                            dur="20s"
                            values="80%;120%;80%"
                            repeatCount="indefinite"
                    />
                </path>
            </g>
            <g id="white">
                <path d="M393.9,368.7c-1.6.9-1.6,2.3,0,3.1a5.67,5.67,0,0,0,3.4.7v-4.4A6.53,6.53,0,0,0,393.9,368.7Zm.7,31.6a1.61,1.61,0,0,0,.58-2.19,1.63,1.63,0,0,0-.88-.71,5.9,5.9,0,0,0-5.2-.2l-.4.2-.5.3c-1,.8-.8,2,.5,2.9a6.71,6.71,0,0,0,5,.2h0l3.6,2.1v-1.1Zm2.7-65-79.5,45.9h-.2v42.3h.1l5.5,3.2,74.1,42.7v-1l-10.4-6v-22l-41.7-24.1V395.8a6.15,6.15,0,0,0,2.3-.7c1.5-.8,1.5-2.2,0-3.2a6.08,6.08,0,0,0-5.6,0c-1.5,1-1.5,2.4,0,3.2a6.71,6.71,0,0,0,2.4.7V417l41.6,24.1v21l-67.3-38.9h-.1V381.8L355,360.7h33.7l8.6-4.9v-1.1l-8.8,5.1H356.6l40.7-23.5Zm0,134.3h0l1.5.8Zm177.1,64.8a5.88,5.88,0,0,0-5-.3l-11.5-6.6h-1.8l12.4,7.1c-1.2.9-1,2.2.4,3a5.65,5.65,0,0,0,3.1.6,6.43,6.43,0,0,0,2.4-.6,2.08,2.08,0,0,0,1.1-1.4A1.71,1.71,0,0,0,574.4,534.4Zm204.1,7.5a5.59,5.59,0,0,0-4.9-.2l-24.5-14.2h-1.8l25.4,14.7c-1.2.9-1.1,2.1.3,2.9a5.88,5.88,0,0,0,5.5,0C780.1,544.2,780.1,542.8,778.5,541.9Zm-43.3-21.4,1,.6.8-.6-.9-.5Zm62.7,98.2a6.5,6.5,0,0,0-5.1-.1l-20.3-11.8H724l-62.9-36.4-1.5-.8-1.6-.9h57l27.5,15.8c-1.2.8-1,2.1.3,2.9a5.6,5.6,0,0,0,5.6,0c1.5-.9,1.5-2.3,0-3.1a5.49,5.49,0,0,0-5-.3l-28.1-16.2H656.5l-19.7-11.4H560l-12.3-7.1-1.2-.7h32.8l16.4-9.5H664l19,11.1h38.7a3,3,0,0,0,1.1,1.2,6.08,6.08,0,0,0,5.6,0c1.5-.9,1.5-2.3,0-3.2a6.08,6.08,0,0,0-5.6,0,2.13,2.13,0,0,0-1.1,1.2H683.4l-18.2-10.6-.9-.5h-67l.5-.3,17.9-10.3a5.91,5.91,0,0,0,4.7-.1h-6.3l-35.2,20.3H545l-32.2-18.7,2.8-1.6h-1.7l-12.6,7.3-.8.5L488.9,542l-.9.5-13.2,7.6-.9.5L461.1,558l-.7.4-11.2,6.5-.9.5-17,9.8-.9.5-10.6,6.1-19.3-11.2-.9-.5h0l-.2-.2h-.2l-16.4-9.5-.9-.5-16.1-9.3-.9-.5L322,525.3l-.8-.5-4.6-2.6,2.1-1.2.9-.4,77.7-44.9v-1.1l-12.5,7.3-2-1.2-1-.5L241.7,399.3V349.9l-49-28.2c1.2-.8,1-2.1-.3-2.9a6.08,6.08,0,0,0-5.6,0c-1.6.9-1.6,2.3,0,3.2a5.81,5.81,0,0,0,5,.2l48.9,28.2v49.4l140.2,80.9,1,.6,1.9,1.1-16,9.3-2-1.2-.9-.5-17.7-10.2L226.3,410H141.8l-5.6-3.2-1-.6L89.1,379.5V332.7l1.5-.5c1.5-.9,1.5-2.4,0-3.3a6.6,6.6,0,0,0-5.5,0c-1.6.9-1.6,2.4,0,3.3a6.61,6.61,0,0,0,3.1.6V380l47,27.2,1,.5,5.3,3.1H226l119.4,69H321.5l-40.7-23.4H249.3l-43.7,25.2a5.81,5.81,0,0,0-5,.2c-1.6,1-1.6,2.4,0,3.2a5.88,5.88,0,0,0,5.5,0c1.3-.7,1.5-2,.4-2.9l43-24.8h31l40.7,23.4H347l17.1,9.8.8.5,2,1.2L324,517l-2-1.2-.8-.5-9.3-5.4V491.4l-20.1-11.5-.9-.5-10-5.8c1.1-.9,1-2.2-.4-3a6.6,6.6,0,0,0-5.5,0c-1.6.9-1.6,2.3,0,3.3a6.22,6.22,0,0,0,5,.1l10.1,5.9.8.5L311,491.9v17.5l-11.5-6.6-.9-.5-20.5-11.9H262.3l-18.7,10.7a6.51,6.51,0,0,0-5.1.3c-1.5.9-1.5,2.3,0,3.2a6.08,6.08,0,0,0,5.6,0c1.3-.8,1.5-2,.3-3l18.2-10.4h15.1l20.1,11.6.8.5,21.7,12.5.9.5,2,1.2-4.5,2.6-.8.5-2.3,1.3-.7.3,5.4,3.2.8.4,20.1,11.7-12.3,7.1H310.3l-10.8-6.2-.9-.5-1.7-1c1-.9.8-2.1-.4-2.9a5.88,5.88,0,0,0-5.5,0c-1.6.9-1.6,2.3,0,3.2a6,6,0,0,0,5.1.2l1.6,1,.9.5,11.3,6.5h17.4l-31.4,18.2-4.2-2.4-.9-.5-17.2-10-1.6-.9L221.9,521H168.6l-30.1,17.4a6.5,6.5,0,0,0-5.1.2c-1.5.9-1.5,2.3,0,3.2a6.08,6.08,0,0,0,5.6,0c1.3-.8,1.5-2.1.4-3l29.4-17h52.9L270.3,550l1.6.9,6.8,3.9H254.3L230.4,541a1.59,1.59,0,0,0,.52-2.2,1.61,1.61,0,0,0-.92-.7,5.42,5.42,0,0,0-5.5,0c-1.6.8-1.6,2.2,0,3.1a5.81,5.81,0,0,0,5,.2L254,555.5h26.3l9.7,5.6.9.6,4.2,2.4-34.3,19.7-1.6.9-1.7,1H137.3L44,531.9c1-.9.9-2-.4-2.9a6.83,6.83,0,0,0-5.6,0c-1.6.9-1.6,2.4,0,3.3a6.41,6.41,0,0,0,5.1.1L137,586.7H255.9L241,595.4H152.1l-43.3,24.9h-.2a5.88,5.88,0,0,0-5.5,0c-1.6.9-1.6,2.3,0,3.2a5.88,5.88,0,0,0,5.5,0c1.1-.7,1.4-1.7.8-2.5l42.9-24.7h88.9L261,584.8l1.6-.9L342.2,538l11.3,6.5-27.6,15.9-1.4.8-77.1,44.5H169.9L76.2,659.8H66.5L12.2,628.4c1.1-.9,1-2.1-.5-2.9a6.6,6.6,0,0,0-5.5,0c-1.5.9-1.5,2.4,0,3.3a6.22,6.22,0,0,0,5,.1l54.9,31.8H76.4l58.8-33.9v20L96.5,669.2a6.1,6.1,0,0,0-5.1.2c-1.5.9-1.5,2.3,0,3.1a5.6,5.6,0,0,0,5.6,0c1.4-.7,1.5-1.9.4-2.8l38.5-22.3h.2v-21h-.2l34.2-19.7h77.5l78.5-45.4,1.4-.8L354.3,545l9.8,5.7.9.5,1.9,1.1L160.5,671.5h-.3v43.3L44.8,781.6a6.5,6.5,0,0,0-5.1.2c-1.5.9-1.5,2.3,0,3.1a5.6,5.6,0,0,0,5.6,0,1.6,1.6,0,0,0,.4-2.9l115.2-66.4.2-.2V672.1L367.9,552.8l13.2,7.6.8.5,1.7.9L277.1,623.3h-.2v11.1L258,645.3v25.3L241.7,680l-.8.5-19.7,11.3a5.59,5.59,0,0,0-4.9.2c-1.6.9-1.6,2.4,0,3.2a5.88,5.88,0,0,0,5.5,0c1.4-.7,1.6-2,.4-2.8l18.7-10.8.8-.5,16.9-9.8.3-.2V645.8l18-10.3V676l10.6,6.1-62.2,36h-.2v40.5l-44.5,25.7a7.51,7.51,0,0,0-5.1.2c-1.5.9-1.5,2.4,0,3.3a6.83,6.83,0,0,0,5.6,0c1.4-.9,1.6-2.1.5-3l44.1-25.5.2-.2V718.7l62.5-36L390,741.3v45.4a10.12,10.12,0,0,0-2.3.6c-1.5.9-1.5,2.3,0,3.2a6.08,6.08,0,0,0,5.6,0c1.5-.9,1.5-2.3,0-3.2a8.39,8.39,0,0,0-2.3-.6V740.8l-61.4-35.4h44.5l36,20.7c-1.1.9-1,2.2.4,3a6.08,6.08,0,0,0,5.6,0c1.6-.9,1.6-2.3,0-3.2a6.1,6.1,0,0,0-5.1-.2l-36.5-21.2H328.1l-50.3-29V623.9l106.6-61.6,14.1,8.1L322.9,614a5.89,5.89,0,0,0-4.7.4c-1.4.8-1.5,2.1-.4,3a.48.48,0,0,0,.4.2l.6.3a6.19,6.19,0,0,0,5-.3c1.2-.8,1.4-2,.5-2.9l-.4-.2,75.4-43.6.4.2,13.8,8-26.6,15.3-.8.4-62.9,36.4H298.7a3.94,3.94,0,0,0-1.1-1.2,6.83,6.83,0,0,0-5.6,0c-1.6,1-1.6,2.4,0,3.2a6.08,6.08,0,0,0,5.6,0,2.07,2.07,0,0,0,1-1.1h24.7l62.8-36.3.8-.4,27.4-15.8,5.4,3.1h.1l4.3-2.5,6.3,3.7.9.4,14.5,8.4v17.4l-14.5,8.3-.9.5-2.5,1.5H399.8L369,638.3a6.1,6.1,0,0,0-5.1.2c-1.5.9-1.5,2.3,0,3.2a6.08,6.08,0,0,0,5.6,0c1.4-.8,1.5-2,.4-2.9l30.2-17.5h26.4l-32.9,19-5.4,3.1-14.3,8.3a5.69,5.69,0,0,0-5.1.2c-1.6.8-1.6,2.3,0,3.2a5.88,5.88,0,0,0,5.5,0c1.3-.8,1.5-2.1.5-2.9L389,644l42.3-24.4,9-5.2v8.3l-38.8,22.4-.2.2v15.9l-31.7,18.3a6.1,6.1,0,0,0-5.1.2,1.88,1.88,0,0,0-.8.7,1.62,1.62,0,0,0-.3.9,1.92,1.92,0,0,0,1.1,1.6,5.88,5.88,0,0,0,5.5,0,1.89,1.89,0,0,0,1.2-1.6,1.62,1.62,0,0,0-.3-.9l-.4-.4L402,661.7h.2V645.8l38.7-22.5h.3v-9.4l5.2-3,.2-.2V592.3l-15.3-8.9-.9-.5-5.4-3.1,5.4-3.1.9-.5,8-4.6,19.6,11.3.9.6,24,13.8v29l-30.4,17.6a5.88,5.88,0,0,0-5,.3c-1.5.8-1.5,2.2,0,3.2a6.08,6.08,0,0,0,5.6,0c1.3-.9,1.5-2.1.3-3l29.5-17v23.8l-23,13.2h-.2V709a6.82,6.82,0,0,0-2.4.5c-1.5,1-1.5,2.4,0,3.2a6.42,6.42,0,0,0,5.7,0c1.5-.8,1.5-2.2,0-3.2a6.82,6.82,0,0,0-2.4-.5V665l22.3-12.8V729a5,5,0,0,0-2.4.6c-1.5.9-1.5,2.4,0,3.2a6.08,6.08,0,0,0,5.6,0c1.5-.8,1.5-2.3,0-3.2a4.62,4.62,0,0,0-2.3-.6V596.8l-24.9-14.4-.9-.5-18.7-10.8,9-5.2.9-.5,6.1-3.5,58.2,33.6v80l28,16.1v30.1l8.7,5,.9.6,15,8.6a1.59,1.59,0,0,0-.52,2.2,1.61,1.61,0,0,0,.92.7,6.08,6.08,0,0,0,5.6,0c1.5-.8,1.5-2.2,0-3.2a6.1,6.1,0,0,0-5.1-.2L552,726.2l-.9-.5-7.9-4.5V691.1L515.1,675V595L457,561.4l4.3-2.5.8-.4,6.7-3.9,78.5,45.3v68.2L617,708.4c-1.2.8-1,2.1.3,2.9a6.08,6.08,0,0,0,5.6,0c1.6-.9,1.6-2.3,0-3.2a5.81,5.81,0,0,0-5-.2l-69.8-40.3V599.4l-78.5-45.3,5.2-3,.9-.5,13.1-7.5,79.7,46,1.5.8,49.4,28.6v34l2.2,1.2.9.5,106.4,61.4c-1.1,1-1,2.2.4,3a6.08,6.08,0,0,0,5.6,0c1.5-.9,1.5-2.3,0-3.2a6.51,6.51,0,0,0-5.1-.3L622.5,653.2l-.9-.4-1.3-.8V618l-48.4-28.1-1.5-.8-23.5-13.6H605l23.6,13.6,1.4.8,42.2,24.4c-1.2.8-1.1,2.1.4,2.9a5.88,5.88,0,0,0,5.5,0c1.6-.9,1.6-2.3,0-3.2a5.59,5.59,0,0,0-4.9-.2l-41.4-23.9-1.4-.8-25.1-14.5H545.4l-7.3-4.2-48.4-27.9h.1l11.6-6.7.8-.5,9.7-5.6,32.6,18.7,1.4.9,13.7,7.8h76.8l21.5,12.4,1.4.8,64.3,37.2h48.6L791.9,619c-1.1.9-1,2.1.4,2.9a6.83,6.83,0,0,0,5.6,0C799.4,621.1,799.4,619.7,797.9,618.7ZM545,547.8l-32.2-18.7,2.8-1.6h-1.7l-12.6,7.3-.8.5.9.5.8-.5,9.7-5.6,32.6,18.7h9.9l1.2-.6Z"
                      fill="#0D0A3F" stroke="#FFF" stroke-dashoffset="100%">
                    <animate
                            attributeName="stroke-dasharray"
                            dur="20s"
                            values="80%;120%;80%"
                            repeatCount="indefinite"
                    />
                </path>
            </g>
        </g>
    </g>
</svg>
