<svg width="109" height="25" viewBox="0 0 109 25" fill="none" xmlns="http://www.w3.org/2000/svg">
<g clip-path="url(#clip0_4_459)">
<path d="M8.07117 0H13.6915C14.9222 0 16.0358 0.184356 17.0323 0.553066C18.0288 0.916792 18.8783 1.41505 19.5809 2.04783C20.2784 2.68062 20.8166 3.41804 21.1952 4.26009C21.5689 5.10713 21.7558 6.00399 21.7558 6.95067V18.0493C21.7558 18.996 21.5689 19.8929 21.1952 20.7399C20.8166 21.5869 20.2784 22.3269 19.5809 22.9596C18.8783 23.5924 18.0288 24.0907 17.0323 24.4544C16.0358 24.8181 14.9222 25 13.6915 25H8.07117C6.84546 25 5.73435 24.8181 4.73784 24.4544C3.73634 24.0907 2.88682 23.5924 2.18926 22.9596C1.4917 22.3269 0.953584 21.5869 0.574909 20.7399C0.196234 19.8929 0.00689697 18.996 0.00689697 18.0493V6.95067C0.00689697 6.00399 0.196234 5.10713 0.574909 4.26009C0.953584 3.41804 1.4917 2.68062 2.18926 2.04783C2.88682 1.41505 3.73634 0.916792 4.73784 0.553066C5.73435 0.184356 6.84546 0 8.07117 0ZM15.0293 12.8475L15.3731 16.7339H17.4508L16.0084 3.13901L14.8798 2.01046L12.4508 1.64425H10.5002L8.07117 2.01046L6.95757 3.13901L5.4628 16.7339H7.63769L7.92917 12.8475L8.10854 11.1659H14.8425L15.0293 12.8475ZM12.3836 3.57997L14.0951 3.84903C14.1798 4.83558 14.277 5.76732 14.3866 6.64425C14.4962 7.52118 14.6008 8.44544 14.7005 9.41704H8.27297L8.81856 3.84903C9.16235 3.81415 9.45882 3.7718 9.70794 3.72197C9.95707 3.67713 10.251 3.6298 10.5899 3.57997H12.3836ZM38.6915 16.7339V4.56652L38.4374 3.03438L37.264 1.86099L35.403 1.64425H30.844L27.5629 2.10015V16.7339H29.4912V3.78176L30.9187 3.5426H35.2984L36.554 3.74439L36.7408 4.82063V16.7339H38.6915ZM29.678 0H35.2984C36.5241 0 37.6352 0.184356 38.6317 0.553066C39.6332 0.916792 40.4827 1.41505 41.1803 2.04783C41.8778 2.68062 42.416 3.41804 42.7946 4.26009C43.1733 5.10713 43.3626 6.00399 43.3626 6.95067V18.0493C43.3626 18.996 43.1733 19.8929 42.7946 20.7399C42.416 21.5869 41.8778 22.3269 41.1803 22.9596C40.4827 23.5924 39.6332 24.0907 38.6317 24.4544C37.6352 24.8181 36.5241 25 35.2984 25H29.678C28.4474 25 27.3338 24.8181 26.3372 24.4544C25.3407 24.0907 24.4912 23.5924 23.7887 22.9596C23.0911 22.3269 22.553 21.5869 22.1743 20.7399C21.8006 19.8929 21.6138 18.996 21.6138 18.0493V6.95067C21.6138 6.00399 21.8006 5.10713 22.1743 4.26009C22.553 3.41804 23.0911 2.68062 23.7887 2.04783C24.4912 1.41505 25.3407 0.916792 26.3372 0.553066C27.3338 0.184356 28.4474 0 29.678 0ZM51.2774 0H56.8978C58.1285 0 59.2421 0.184356 60.2386 0.553066C61.2351 0.916792 62.0821 1.41505 62.7797 2.04783C63.4822 2.68062 64.0203 3.41804 64.394 4.26009C64.7727 5.10713 64.962 6.00399 64.962 6.95067V18.0493C64.962 18.996 64.7727 19.8929 64.394 20.7399C64.0203 21.5869 63.4822 22.3269 62.7797 22.9596C62.0821 23.5924 61.2351 24.0907 60.2386 24.4544C59.2421 24.8181 58.1285 25 56.8978 25H51.2774C50.0517 25 48.9381 24.8181 47.9366 24.4544C46.9401 24.0907 46.0931 23.5924 45.3955 22.9596C44.693 22.3269 44.1549 21.5869 43.7812 20.7399C43.4025 19.8929 43.2132 18.996 43.2132 18.0493V6.95067C43.2132 6.00399 43.4025 5.10713 43.7812 4.26009C44.1549 3.41804 44.693 2.68062 45.3955 2.04783C46.0931 1.41505 46.9401 0.916792 47.9366 0.553066C48.9381 0.184356 50.0517 0 51.2774 0ZM60.6945 13.7967V4.60389L60.4404 3.06428L59.2894 1.89836L57.406 1.64425H49.2745V16.7339H57.406L59.2894 16.5172L60.4404 15.3662L60.6945 13.7967ZM58.7588 13.5949L58.5047 14.6188L57.3014 14.7982H51.1653V3.57997H57.3014L58.5794 3.78176L58.7588 4.858V13.5949ZM72.8768 0H78.4972C79.7279 0 80.8415 0.184356 81.838 0.553066C82.8345 0.916792 83.684 1.41505 84.3866 2.04783C85.0841 2.68062 85.6222 3.41804 86.0009 4.26009C86.3796 5.10713 86.5689 6.00399 86.5689 6.95067V18.0493C86.5689 18.996 86.3796 19.8929 86.0009 20.7399C85.6222 21.5869 85.0841 22.3269 84.3866 22.9596C83.684 23.5924 82.8345 24.0907 81.838 24.4544C80.8415 24.8181 79.7279 25 78.4972 25H72.8768C71.6511 25 70.54 24.8181 69.5435 24.4544C68.542 24.0907 67.6925 23.5924 66.9949 22.9596C66.2974 22.3269 65.7593 21.5869 65.3806 20.7399C65.0019 19.8929 64.8126 18.996 64.8126 18.0493V6.95067C64.8126 6.00399 65.0019 5.10713 65.3806 4.26009C65.7593 3.41804 66.2974 2.68062 66.9949 2.04783C67.6925 1.41505 68.542 0.916792 69.5435 0.553066C70.54 0.184356 71.6511 0 72.8768 0ZM79.1549 11.2407L79.4314 12.2272V16.7339H81.3671V12.0254L80.7244 10.3513L78.6467 9.59641L80.6571 8.63229L81.2177 6.98804V4.96263L81.0009 3.43049L79.7976 1.89836L77.974 1.64425H71.1653V16.7339H73.116V10.6577H77.8619L79.1549 11.2407ZM73.116 3.57997H77.8619L79.1549 4.14051L79.2819 5.20179V7.13752L79.0129 8.13901L77.8619 8.70703H73.116V3.57997ZM94.4837 0H100.104C101.33 0 102.443 0.184356 103.445 0.553066C104.441 0.916792 105.288 1.41505 105.986 2.04783C106.689 2.68062 107.227 3.41804 107.6 4.26009C107.979 5.10713 108.168 6.00399 108.168 6.95067V18.0493C108.168 18.996 107.979 19.8929 107.6 20.7399C107.227 21.5869 106.689 22.3269 105.986 22.9596C105.288 23.5924 104.441 24.0907 103.445 24.4544C102.443 24.8181 101.33 25 100.104 25H94.4837C93.253 25 92.1394 24.8181 91.1429 24.4544C90.1464 24.0907 89.2969 23.5924 88.5943 22.9596C87.8968 22.3269 87.3587 21.5869 86.98 20.7399C86.6063 19.8929 86.4194 18.996 86.4194 18.0493V6.95067C86.4194 6.00399 86.6063 5.10713 86.98 4.26009C87.3587 3.41804 87.8968 2.68062 88.5943 2.04783C89.2969 1.41505 90.1464 0.916792 91.1429 0.553066C92.1394 0.184356 93.253 0 94.4837 0ZM102.496 9.16293V4.56652L102.219 3.03438L101.068 1.86099L99.2296 1.64425H95.2685L93.4449 1.86099L92.2939 3.03438L92.0174 4.56652V13.2287L92.2939 14.7608L93.4449 15.9118L95.2685 16.151H99.8649L102.002 15.8744L101.547 13.9088L99.8275 14.2003H95.3955L94.2296 14.0135L93.968 12.9223V9.16293H102.496ZM100.538 7.24963H93.968V4.78326L94.1175 3.74439L95.3955 3.5426H99.1175L100.358 3.74439L100.538 4.82063V7.24963Z" fill="#D5B263"/>
</g>
<defs>
<clipPath id="clip0_4_459">
<rect width="108.175" height="25" fill="white"/>
</clipPath>
</defs>
</svg>
